<?xml version="1.0" standalone="no"?>
<!DOCTYPE svg PUBLIC "-//W3C//DTD SVG 20010904//EN"
 "http://www.w3.org/TR/2001/REC-SVG-20010904/DTD/svg10.dtd">
<svg version="1.0" xmlns="http://www.w3.org/2000/svg"
 width="3840.000000pt" height="3840.000000pt" viewBox="0 0 3840.000000 3840.000000"
 preserveAspectRatio="xMidYMid meet">

<g transform="translate(0.000000,3840.000000) scale(0.100000,-0.100000)"
fill="#000000" stroke="none">
<path d="M18670 38394 c-706 -25 -1294 -71 -1918 -149 -2898 -367 -5688 -1403
-8132 -3021 -2514 -1663 -4616 -3907 -6102 -6514 -362 -634 -696 -1306 -976
-1960 -837 -1955 -1340 -4034 -1492 -6160 -37 -533 -44 -748 -44 -1390 0 -642
7 -857 44 -1390 234 -3284 1309 -6445 3126 -9190 1427 -2158 3286 -4017 5444
-5444 1208 -800 2526 -1470 3880 -1974 1705 -635 3491 -1022 5310 -1152 533
-37 748 -44 1390 -44 642 0 857 7 1390 44 5216 372 10033 2853 13396 6901
2321 2795 3804 6206 4259 9801 109 867 149 1523 149 2448 0 642 -7 857 -44
1390 -364 5096 -2744 9821 -6635 13171 -1961 1687 -4252 2967 -6705 3744
-1584 502 -3166 784 -4910 875 -199 11 -1239 21 -1430 14z m670 -4475 c53 -13
124 -62 149 -102 11 -19 28 -66 37 -103 34 -146 49 -176 174 -354 67 -96 317
-467 555 -825 666 -1000 896 -1303 1350 -1775 98 -102 207 -217 242 -257 l64
-71 -3 -78 -3 -77 -150 118 c-736 581 -1406 1240 -1994 1965 -122 151 -451
583 -511 673 -14 20 -28 37 -31 37 -3 0 -41 -48 -85 -107 -720 -990 -1564
-1873 -2422 -2535 l-143 -111 -35 34 c-19 18 -34 37 -34 42 0 21 100 150 328
425 568 685 678 818 857 1042 354 442 512 665 875 1230 254 395 253 393 334
622 45 125 124 199 235 218 50 9 155 3 211 -11z m-7483 -3244 c588 -19 1353
-182 1909 -405 186 -75 506 -234 674 -335 544 -328 997 -742 1390 -1270 857
-1151 1148 -2653 789 -4068 -209 -821 -625 -1541 -1274 -2206 -884 -905 -1932
-1393 -3160 -1471 -88 -5 -188 -12 -222 -16 l-63 -6 0 -446 c0 -246 -5 -535
-10 -642 -63 -1244 -354 -2208 -917 -3040 -406 -598 -901 -983 -1453 -1126
-317 -83 -687 -95 -1040 -34 -660 113 -1171 486 -1557 1134 -348 586 -573
1310 -673 2164 -34 298 -43 485 -37 860 6 469 37 772 123 1215 37 188 65 279
121 392 72 142 250 401 303 440 75 55 216 88 283 66 70 -23 153 -148 178 -270
15 -74 -6 -281 -71 -686 -51 -321 -80 -539 -102 -780 -17 -188 -17 -855 0
-1035 67 -695 229 -1281 512 -1855 224 -453 423 -727 680 -934 347 -279 667
-360 1005 -254 97 30 230 98 306 155 105 79 287 249 391 365 437 487 719 1059
923 1873 305 1214 282 2336 -70 3405 -283 862 -642 1405 -1141 1728 -174 113
-277 154 -804 324 -22 7 5 24 115 73 255 112 515 126 830 45 780 -200 1320
-719 1683 -1616 71 -176 137 -377 232 -709 45 -157 90 -315 101 -351 l19 -66
108 19 c715 126 1181 267 1617 491 1016 523 1763 1410 2136 2538 275 833 311
1739 99 2554 -96 374 -243 739 -424 1060 -513 907 -1338 1624 -2316 2013 -311
124 -604 202 -925 248 -173 24 -624 30 -815 10 -1240 -131 -2429 -834 -3140
-1858 -381 -548 -669 -1344 -755 -2088 -22 -189 -30 -590 -16 -780 52 -674
236 -1311 573 -1984 176 -351 376 -672 779 -1251 246 -354 301 -435 293 -435
-9 0 -273 139 -379 198 -548 310 -1065 775 -1381 1242 -211 311 -378 653 -495
1014 -194 597 -267 1324 -203 2019 114 1248 770 2441 1794 3264 767 616 1684
991 2675 1094 130 13 469 26 575 22 41 -1 143 -5 227 -8z m14363 -1855 c955
-71 1699 -421 2180 -1025 342 -430 491 -859 478 -1376 l-4 -164 -44 -105 c-24
-58 -46 -109 -50 -113 -11 -12 -135 42 -205 90 -147 100 -234 219 -435 598
-146 275 -223 411 -313 555 -382 609 -966 1015 -1574 1095 -478 63 -966 -91
-1403 -442 -211 -169 -435 -427 -645 -743 -217 -326 -382 -639 -698 -1325
-435 -945 -661 -1353 -997 -1800 -259 -345 -432 -517 -940 -935 -200 -165
-343 -300 -375 -354 -14 -24 -37 -100 -55 -181 -91 -412 -237 -927 -410 -1444
-89 -265 -146 -427 -493 -1396 -91 -253 -213 -606 -272 -785 -58 -179 -140
-424 -182 -545 -253 -737 -278 -831 -270 -1015 3 -98 9 -131 41 -227 77 -234
195 -494 318 -699 236 -395 667 -810 927 -894 190 -61 361 13 588 253 104 111
187 222 274 368 112 188 124 221 123 314 -2 89 -13 126 -109 335 -187 410
-276 870 -262 1350 10 306 43 521 110 698 46 124 90 194 172 277 81 81 177
134 292 159 136 30 441 16 617 -29 186 -48 314 -192 360 -405 30 -138 37 -243
43 -580 4 -268 2 -370 -12 -510 -29 -313 -92 -623 -185 -914 -68 -215 -70
-308 -8 -436 60 -126 418 -456 613 -565 357 -200 664 -137 1077 222 376 327
666 770 826 1264 89 272 86 256 83 607 -3 397 8 482 75 561 36 44 91 69 171
81 137 20 410 6 525 -26 79 -22 141 -79 158 -144 15 -53 9 -207 -15 -385 -22
-170 -30 -569 -16 -810 6 -110 27 -371 46 -580 33 -364 107 -1331 195 -2545
40 -554 56 -685 85 -696 7 -3 71 9 141 26 544 134 998 451 1384 965 314 418
539 955 704 1675 252 1106 256 2244 10 3390 -157 729 -448 1565 -779 2235
-260 527 -608 928 -1075 1238 -331 219 -692 317 -1030 278 -189 -22 -315 -60
-980 -291 -206 -72 -676 -210 -713 -210 -20 0 -79 78 -71 93 46 77 186 243
248 295 357 298 823 488 1346 548 195 22 575 15 765 -14 627 -97 1168 -356
1584 -757 310 -300 662 -804 892 -1280 160 -329 225 -521 369 -1068 333 -1275
436 -1892 456 -2737 26 -1081 -177 -2061 -606 -2935 -388 -789 -850 -1282
-1505 -1605 -272 -134 -552 -226 -855 -280 -151 -27 -205 -45 -244 -84 -57
-57 -58 -70 -50 -574 30 -2058 -307 -3332 -1252 -4734 -365 -542 -726 -982
-1163 -1418 -357 -357 -610 -572 -964 -819 -949 -663 -2033 -969 -3261 -921
-1217 49 -2171 347 -2926 916 -397 299 -686 643 -890 1059 -148 302 -232 584
-287 966 -14 102 -18 194 -18 524 0 408 5 489 46 785 140 1005 557 1906 1239
2675 132 148 419 428 560 546 959 801 2202 1269 3760 1414 478 44 932 59 1590
52 601 -7 1583 -36 2289 -68 248 -11 311 -4 359 36 34 29 52 83 52 157 0 31
-14 233 -30 449 -17 217 -60 812 -95 1323 -35 511 -66 930 -67 932 -2 1 -86
-76 -188 -173 -102 -96 -230 -211 -285 -256 -361 -292 -784 -453 -1249 -473
-489 -22 -961 130 -1395 449 -98 72 -140 64 -229 -47 -84 -103 -245 -250 -356
-324 -199 -133 -422 -222 -661 -262 -115 -20 -154 -22 -340 -17 -174 4 -231 9
-331 31 -411 87 -798 313 -1072 626 -41 47 -162 202 -269 345 -107 143 -198
261 -201 262 -4 1 -88 -106 -187 -238 -211 -281 -337 -412 -509 -527 -596
-399 -1348 -372 -1895 68 -231 186 -322 314 -671 945 -46 83 -84 151 -85 153
-2 2 -69 -111 -150 -250 -279 -479 -454 -719 -699 -963 -434 -431 -907 -644
-1490 -671 -1033 -47 -1786 588 -1887 1591 -15 148 -7 428 16 585 80 543 341
1075 794 1615 96 115 340 359 456 457 474 398 1029 663 1646 788 216 43 274
47 323 18 22 -13 41 -28 43 -34 2 -7 -58 -28 -149 -54 -184 -51 -291 -92 -462
-177 -451 -226 -832 -557 -1181 -1028 -465 -627 -671 -1194 -652 -1800 11
-345 74 -609 212 -885 219 -435 530 -660 858 -619 443 55 982 518 1305 1119
158 295 339 830 396 1170 27 163 36 270 36 430 0 221 -31 426 -91 609 -27 80
-22 156 15 229 47 93 170 152 317 152 216 0 456 -125 532 -278 14 -26 97 -267
187 -537 306 -921 452 -1297 612 -1578 140 -246 380 -596 486 -709 218 -231
407 -203 717 107 243 242 404 499 641 1025 93 207 97 218 101 300 4 75 0 106
-37 260 -154 648 -210 1125 -260 2210 -11 245 -34 675 -50 955 -16 281 -35
616 -42 745 -17 317 -17 1374 0 1620 38 546 150 1710 183 1910 60 368 171 707
339 1039 153 302 313 534 478 693 237 227 484 327 810 328 289 0 538 -67 715
-194 80 -56 197 -179 251 -264 196 -303 321 -776 378 -1432 17 -191 16 -918
-1 -1249 -13 -243 -12 -255 5 -268 10 -7 22 -12 26 -11 15 6 401 496 467 593
96 141 197 328 488 900 416 816 467 915 655 1254 296 533 447 785 611 1021
256 367 551 668 847 865 509 338 1114 485 1790 435z m4708 -3760 c310 -34 666
-188 822 -356 200 -214 304 -590 260 -931 -11 -88 -41 -213 -50 -213 -16 0
-130 182 -161 255 -126 305 -365 535 -778 751 -93 49 -94 49 -190 49 -126 0
-149 -12 -281 -144 -181 -183 -264 -366 -290 -645 -44 -459 176 -820 570 -937
73 -21 96 -22 705 -30 612 -7 722 -12 910 -44 580 -100 933 -387 1006 -819 17
-101 6 -368 -20 -481 -112 -487 -398 -922 -808 -1231 -240 -181 -546 -320
-835 -379 -353 -72 -720 -49 -1053 65 -256 88 -421 186 -556 328 -163 172
-232 340 -233 562 -1 95 3 127 22 184 50 148 108 235 190 283 37 22 58 27 112
27 139 0 219 -86 460 -489 129 -216 195 -309 279 -388 127 -119 243 -163 405
-155 239 13 582 202 826 454 152 157 241 305 310 513 74 224 94 479 51 646
-64 244 -223 406 -466 477 -80 23 -80 23 -655 20 -605 -3 -822 5 -1016 38
-323 55 -609 212 -787 430 -86 106 -176 286 -214 425 -25 94 -27 113 -27 320
-1 191 2 233 21 317 101 447 355 794 708 967 241 118 487 160 763 131z
m-23884 -10060 l35 -31 -19 -55 c-22 -62 -104 -178 -521 -734 -739 -986 -1288
-1638 -1884 -2236 -276 -277 -393 -374 -596 -495 -149 -89 -243 -130 -309
-136 -103 -10 -150 36 -150 145 0 78 29 169 100 319 99 208 153 284 400 558
732 815 1534 1571 2490 2347 113 91 252 207 310 257 58 50 106 91 107 91 1 0
18 -14 37 -30z m24416 -10 c45 -12 91 -49 635 -515 944 -809 1642 -1475 2209
-2108 215 -240 342 -415 452 -626 l39 -75 3 -156 3 -156 -128 4 c-70 2 -155
10 -188 18 -91 22 -255 120 -359 214 -109 97 -2011 2304 -2247 2605 -129 165
-452 613 -493 682 -20 34 -36 67 -36 74 0 19 42 60 56 55 7 -3 31 -10 54 -16z"/>
<path d="M19970 26663 c-68 -24 -169 -145 -343 -409 -192 -292 -312 -582 -417
-1008 -137 -558 -190 -1151 -190 -2133 l0 -533 28 0 c67 0 270 23 409 46 267
44 496 116 717 225 136 67 140 71 172 120 43 68 59 165 113 659 59 530 74
1130 41 1560 -24 303 -77 667 -125 856 -43 169 -177 474 -240 546 -54 62 -116
89 -165 71z"/>
<path d="M19975 22395 c-143 -13 -361 -28 -485 -34 -339 -17 -344 -17 -378
-35 -76 -39 -84 -90 -72 -449 5 -155 16 -599 25 -987 18 -836 29 -1118 55
-1460 11 -140 20 -267 20 -282 0 -24 4 -28 30 -28 17 0 30 2 30 4 0 3 804
2371 1065 3139 l54 157 -42 -1 c-23 -1 -159 -12 -302 -24z"/>
<path d="M22385 12964 c-632 -43 -931 -70 -1255 -115 -968 -135 -1772 -431
-2425 -893 -631 -446 -1227 -1155 -1571 -1871 -229 -476 -371 -977 -429 -1515
-22 -202 -30 -609 -16 -805 62 -862 359 -1500 911 -1959 293 -244 774 -512
1213 -675 1044 -388 2118 -320 3192 204 1163 567 2136 1561 2962 3025 477 845
728 1766 803 2945 27 418 20 1373 -11 1490 -14 51 -43 83 -88 95 -20 5 -214
14 -431 20 -217 6 -834 24 -1370 40 -1064 33 -1188 34 -1485 14z"/>
</g>
</svg>
